<?xml version="1.0" standalone="no"?>
<!DOCTYPE svg PUBLIC "-//W3C//DTD SVG 20010904//EN"
 "http://www.w3.org/TR/2001/REC-SVG-20010904/DTD/svg10.dtd">
<svg version="1.0" xmlns="http://www.w3.org/2000/svg"
 width="788.000000pt" height="788.000000pt" viewBox="0 0 788.000000 788.000000"
 preserveAspectRatio="xMidYMid meet">
<metadata>
Created by potrace 1.14, written by Peter Selinger 2001-2017
</metadata>
<g transform="translate(0.000000,788.000000) scale(0.100000,-0.100000)"
fill="#000000" stroke="none">
<path d="M3815 7512 c-33 -31 -95 -82 -138 -114 l-79 -58 139 0 140 0 38 -56
c52 -75 167 -190 248 -248 82 -58 211 -119 301 -142 60 -15 81 -16 165 -5 213
26 397 54 411 62 13 7 12 8 -2 9 -27 0 -240 67 -341 106 -280 110 -572 279
-737 428 -92 83 -77 81 -145 18z"/>
<path d="M3490 7268 c0 -19 130 -140 201 -187 157 -103 355 -173 559 -196 l55
-6 -60 31 c-123 65 -257 178 -345 290 l-64 80 -173 0 c-131 0 -173 -3 -173
-12z"/>
<path d="M3306 7081 l-68 -102 16 -112 c8 -62 26 -195 38 -297 26 -211 23
-216 52 105 33 366 38 431 34 469 l-3 38 -69 -101z"/>
<path d="M3471 6814 c1 -404 -1 -398 44 -109 9 55 24 156 35 225 11 69 20 134
19 145 -1 11 -23 40 -50 64 l-49 44 1 -369z"/>
<path d="M3210 7129 c-242 -112 -592 -211 -900 -255 -230 -32 -315 -37 -825
-43 l-530 -6 -57 -450 c-31 -247 -57 -458 -57 -467 -1 -17 34 -18 589 -18
l589 0 73 48 c40 26 94 58 120 72 l47 25 -5 90 c-2 49 -6 111 -9 136 -4 44 0
51 72 150 120 165 174 248 219 334 l41 80 126 3 125 3 51 -51 c50 -50 51 -50
78 -36 54 30 91 73 200 231 111 162 127 186 121 184 -2 0 -32 -14 -68 -30z"/>
<path d="M3623 7023 c3 -15 25 -162 48 -325 24 -164 44 -296 47 -294 2 2 28
113 58 247 30 134 56 251 59 260 4 11 -4 20 -26 29 -17 7 -67 35 -111 62 l-80
49 5 -28z"/>
<path d="M3591 6945 c0 -5 -8 -52 -16 -105 -9 -52 -31 -189 -49 -305 l-32
-210 95 -5 c53 -3 97 -5 98 -5 2 0 -85 604 -91 625 -2 8 -4 11 -5 5z"/>
<path d="M3146 6848 l-56 -83 27 -192 c15 -106 28 -191 30 -190 4 5 63 540 59
544 -2 2 -29 -33 -60 -79z"/>
<path d="M3884 6891 c3 -9 26 -140 51 -291 25 -151 47 -276 49 -277 2 -3 125
311 193 494 3 7 -17 16 -54 23 -32 6 -100 24 -151 40 -79 24 -92 25 -88 11z"/>
<path d="M5153 6903 l-23 -4 0 -381 c0 -210 2 -379 4 -377 4 4 216 733 216
743 0 16 -141 30 -197 19z"/>
<path d="M7066 6823 c13 -83 20 -132 89 -653 25 -184 49 -364 54 -400 6 -36
17 -119 26 -185 9 -66 22 -165 30 -220 8 -55 21 -154 30 -220 9 -66 23 -165
31 -220 7 -55 28 -201 44 -325 17 -124 42 -301 55 -395 13 -93 45 -318 70
-500 26 -181 60 -423 76 -537 16 -114 29 -242 29 -286 0 -725 -832 -1525
-2375 -2282 -357 -175 -731 -338 -1090 -476 l-100 -38 -155 0 -155 0 -140 53
c-77 29 -234 93 -350 142 -115 48 -211 87 -213 85 -8 -9 614 -270 775 -324 34
-12 101 -27 150 -33 169 -23 298 15 840 247 1341 572 2317 1233 2716 1839 160
243 250 520 233 720 -3 39 -44 338 -90 665 -83 581 -141 992 -232 1650 -99
715 -134 974 -183 1331 -28 209 -44 296 -59 325 -19 38 -93 114 -110 114 -5 0
-3 -35 4 -77z"/>
<path d="M4915 6862 c-49 -7 -104 -15 -121 -18 l-32 -4 73 -193 c39 -105 94
-253 121 -327 l49 -135 3 178 c1 98 1 253 0 345 l-3 167 -90 -13z"/>
<path d="M5366 6798 c-82 -275 -217 -750 -214 -752 1 -2 32 -14 68 -26 36 -12
94 -33 129 -46 35 -13 67 -24 72 -24 5 0 8 197 7 462 -3 426 -4 463 -20 466
-13 3 -22 -14 -42 -80z"/>
<path d="M5540 6375 l0 -485 35 0 35 0 0 479 c0 518 3 491 -51 491 -18 0 -19
-14 -19 -485z"/>
<path d="M5670 6371 l0 -481 624 0 625 0 -5 33 c-2 17 -27 217 -54 442 -28
226 -53 422 -56 437 l-5 26 -537 5 c-295 3 -549 8 -564 12 l-28 7 0 -481z"/>
<path d="M3194 6567 c-17 -150 -30 -272 -30 -273 1 -1 32 1 69 4 l69 4 -7 52
c-3 28 -19 146 -33 263 -15 117 -30 214 -33 217 -2 3 -18 -117 -35 -267z"/>
<path d="M3800 6587 c-29 -133 -55 -249 -57 -258 -4 -14 11 -17 99 -22 56 -3
104 -5 104 -4 1 1 -5 38 -12 82 -8 44 -28 161 -45 260 -17 99 -32 181 -33 182
-1 2 -26 -106 -56 -240z"/>
<path d="M4570 6818 c-41 -5 -134 -7 -207 -4 l-131 5 24 -77 c13 -42 52 -169
85 -282 34 -113 67 -211 74 -218 10 -11 38 44 145 280 73 161 135 296 137 301
5 9 -28 7 -127 -5z"/>
<path d="M4716 6773 c-44 -91 -246 -541 -246 -547 0 -3 7 -6 16 -6 19 0 396
-92 468 -115 36 -11 47 -12 43 -2 -2 6 -57 154 -121 327 -65 173 -123 330
-130 348 l-12 33 -18 -38z"/>
<path d="M2665 6770 c55 -57 141 -83 213 -64 23 7 22 8 -19 50 l-43 44 -90 0
-90 0 29 -30z"/>
<path d="M4112 6542 c-51 -131 -92 -241 -92 -244 0 -3 28 -8 63 -12 34 -4 108
-14 165 -23 56 -9 105 -13 109 -10 5 6 -47 190 -125 440 l-28 88 -92 -239z"/>
<path d="M3036 6721 c-9 -10 -37 -29 -61 -42 -30 -16 -43 -29 -40 -39 2 -8 16
-78 30 -154 14 -77 26 -141 28 -142 1 -2 17 85 35 193 18 108 31 198 29 200
-2 2 -12 -5 -21 -16z"/>
<path d="M3369 6708 c0 -18 -8 -115 -17 -215 l-17 -183 22 0 23 0 0 215 c0
118 -2 215 -5 215 -3 0 -5 -15 -6 -32z"/>
<path d="M2630 6700 c0 -5 9 -55 19 -112 11 -57 27 -147 37 -202 10 -54 19
-95 21 -90 2 10 43 335 43 347 0 4 -6 7 -13 7 -7 0 -34 13 -60 30 -26 16 -47
25 -47 20z"/>
<path d="M2547 6635 l-37 -64 21 -138 c11 -76 22 -139 23 -141 2 -1 6 30 9 70
4 40 11 131 18 201 6 71 9 130 7 132 -2 2 -20 -25 -41 -60z"/>
<path d="M3042 6473 c-18 -108 -31 -197 -29 -199 6 -6 93 7 107 16 9 6 6 49
-15 191 -14 101 -27 185 -29 186 -1 1 -17 -86 -34 -194z"/>
<path d="M2838 6642 c-37 -2 -58 -7 -58 -15 1 -7 18 -79 39 -162 43 -168 38
-171 67 36 9 64 14 123 12 130 -2 10 -18 13 -60 11z"/>
<path d="M2606 6565 c-13 -136 -35 -399 -33 -400 1 -1 29 7 63 17 l61 19 -29
152 c-15 84 -34 181 -41 217 l-13 65 -8 -70z"/>
<path d="M2744 6392 c-12 -97 -20 -178 -19 -180 4 -4 110 20 117 27 5 5 -67
319 -75 328 -2 1 -12 -78 -23 -175z"/>
<path d="M2921 6565 c-1 -5 -12 -79 -24 -164 l-23 -153 50 7 c28 3 52 7 53 9
2 1 -8 61 -21 132 -14 71 -27 140 -29 154 -2 14 -5 21 -6 15z"/>
<path d="M2443 6479 c-38 -57 -38 -56 -16 -174 l17 -90 8 57 c10 82 28 252 25
254 -1 1 -17 -21 -34 -47z"/>
<path d="M2481 6308 c-7 -73 -15 -145 -17 -160 l-6 -28 46 17 c26 10 45 22 43
28 -3 5 -13 70 -22 143 -10 72 -22 132 -25 132 -4 0 -12 -60 -19 -132z"/>
<path d="M2340 6335 l-32 -46 8 -107 c7 -95 9 -102 15 -62 4 25 16 92 27 150
11 58 18 106 17 108 -2 2 -17 -17 -35 -43z"/>
<path d="M2373 6214 c-12 -70 -21 -130 -19 -131 2 -2 20 4 41 12 l37 16 -7 52
c-3 29 -12 81 -18 116 l-12 64 -22 -129z"/>
<path d="M3340 6190 c-373 -27 -728 -115 -1004 -251 l-90 -44 741 -3 c408 -1
1078 -1 1489 0 l748 3 -145 47 c-359 117 -701 192 -1059 233 -165 18 -524 26
-680 15z"/>
<path d="M806 5723 c-3 -10 -8 -40 -11 -68 -6 -50 -23 -172 -50 -365 -33 -236
-45 -321 -60 -435 -8 -66 -20 -149 -25 -185 -5 -36 -23 -166 -40 -290 -17
-124 -37 -268 -45 -320 -7 -52 -21 -149 -30 -215 -9 -66 -22 -163 -30 -215
-68 -451 -97 -690 -91 -755 31 -381 328 -781 901 -1210 494 -371 1141 -728
1935 -1070 377 -162 505 -208 589 -213 89 -5 102 -2 351 98 1024 410 1924 918
2463 1390 259 226 433 436 537 645 119 238 128 335 71 730 -22 154 -61 429
-86 610 -25 182 -52 375 -60 430 -8 55 -29 201 -45 325 -17 124 -42 302 -55
395 -13 94 -41 297 -61 453 l-38 282 -3058 0 c-2902 0 -3057 -1 -3062 -17z
m3009 -499 c30 -63 55 -120 55 -125 0 -6 71 -167 157 -357 155 -342 215 -459
274 -534 l31 -38 -146 0 -146 0 0 51 c0 38 -13 81 -50 173 l-51 123 -187 -4
c-103 -3 -192 -6 -198 -8 -6 -2 -32 -51 -59 -111 -35 -79 -49 -124 -53 -171
l-5 -63 -143 0 -144 0 61 93 c56 83 115 202 441 874 57 116 104 212 106 212 2
1 28 -51 57 -115z m-1681 56 c2 -14 66 -107 141 -205 75 -99 158 -208 183
-242 26 -34 50 -62 54 -63 7 0 316 397 361 465 15 22 27 46 27 55 0 13 21 15
135 15 126 0 156 -5 120 -18 -25 -10 -74 -109 -85 -176 -8 -45 -11 -184 -8
-441 5 -374 8 -406 43 -492 7 -17 -4 -18 -140 -18 -136 0 -147 1 -140 18 13
33 35 126 35 147 0 12 3 25 8 31 4 5 5 139 2 298 l-5 290 -175 -222 c-96 -121
-177 -221 -180 -221 -3 0 -81 98 -175 219 -93 120 -170 218 -172 216 -1 -1 -3
-141 -3 -312 -1 -283 1 -315 19 -381 12 -40 21 -75 21 -78 0 -3 -63 -5 -140
-5 -77 0 -140 4 -140 9 0 5 6 27 14 49 27 75 36 228 36 594 l0 362 -65 66 -65
65 144 0 144 0 6 -25z m2502 -47 c-19 -65 -21 -90 -21 -498 0 -408 2 -433 21
-497 l21 -68 -133 0 c-74 0 -134 1 -134 3 0 2 7 23 15 48 27 83 35 200 35 514
0 314 -8 431 -35 514 -8 25 -15 46 -15 48 0 2 60 3 134 3 l133 0 -21 -67z
m434 41 c0 -14 5 -35 11 -47 16 -29 507 -728 525 -747 12 -12 14 31 14 312 0
318 -4 373 -36 486 -6 22 -6 22 120 22 l126 0 -10 -22 c-36 -84 -40 -146 -36
-603 2 -247 7 -462 11 -477 l7 -28 -114 0 -114 0 -11 43 c-8 28 -87 148 -238
362 -125 176 -233 327 -241 335 -12 12 -14 -28 -14 -285 0 -266 3 -309 20
-375 11 -41 20 -76 20 -77 0 -2 -56 -3 -124 -3 l-123 0 20 68 c19 62 21 97 25
481 l3 414 -32 41 c-18 22 -48 60 -67 84 l-34 42 146 0 146 0 0 -26z m-1666
-1802 c180 -396 208 -452 263 -527 l37 -50 20 60 c17 53 20 96 23 390 l4 330
-55 69 c-31 38 -56 73 -56 78 0 4 54 8 120 8 118 0 120 0 120 -22 0 -13 10
-39 21 -58 37 -60 410 -590 421 -596 6 -4 8 100 6 287 -3 240 -6 302 -20 337
l-16 42 105 0 c87 0 104 -2 100 -14 -29 -76 -32 -113 -32 -456 0 -195 3 -376
7 -402 l8 -48 -94 0 -93 0 -11 38 c-11 37 -372 554 -392 560 -15 5 -12 -407 4
-493 7 -38 16 -77 20 -86 10 -24 -36 -29 -266 -29 l-198 0 0 41 c0 47 -63 217
-88 237 -11 8 -60 12 -159 12 l-143 0 -31 -67 c-46 -99 -59 -141 -59 -184 l0
-39 -235 0 c-129 0 -235 3 -235 8 0 4 7 30 16 57 10 31 18 105 21 198 l6 147
-182 0 -181 0 0 -127 c1 -114 14 -215 35 -265 7 -17 -3 -18 -115 -18 -112 0
-122 1 -115 18 30 72 36 154 32 482 -2 184 -6 344 -9 355 -4 11 -11 33 -17 48
-6 16 -11 30 -11 33 0 2 54 4 121 4 135 0 127 6 95 -75 -7 -17 -14 -92 -15
-177 l-3 -148 183 0 182 0 -7 143 c-7 157 -8 169 -25 210 -6 16 -11 33 -11 38
0 5 50 9 115 9 77 0 115 -4 115 -11 0 -6 -7 -35 -16 -64 -13 -46 -15 -111 -12
-417 3 -270 7 -371 17 -395 7 -18 16 -33 20 -33 22 0 126 200 401 768 46 95
87 169 92 164 4 -4 82 -171 172 -370z m-1617 348 l52 -11 0 -90 c0 -49 -2 -89
-5 -89 -3 0 -25 11 -49 25 -57 34 -175 58 -240 50 -129 -17 -222 -96 -260
-220 -14 -47 -22 -195 -12 -225 29 -89 46 -120 87 -161 106 -106 284 -111 438
-13 29 19 56 34 61 34 9 0 2 -161 -8 -172 -9 -10 -179 -58 -204 -57 -12 0 -40
-3 -63 -6 -56 -10 -176 11 -240 41 -66 31 -156 112 -191 171 -45 77 -60 147
-57 263 1 75 8 121 22 162 58 165 211 281 407 312 47 7 204 -1 262 -14z m3025
-29 c4 -28 425 -641 441 -641 4 0 7 120 7 266 -1 218 -4 278 -19 335 l-17 69
101 0 101 0 -18 -72 c-17 -66 -19 -108 -16 -443 2 -203 7 -378 12 -387 7 -17
0 -18 -87 -18 l-95 0 -13 38 c-12 38 -378 562 -392 562 -5 0 -7 -116 -5 -257
3 -210 7 -266 21 -300 l16 -43 -103 0 -104 0 19 72 c17 63 19 110 19 393 l0
321 -56 67 -56 67 120 0 120 0 4 -29z m1248 24 c0 -3 -14 -37 -32 -75 -24 -55
-35 -69 -47 -64 -61 26 -105 37 -163 42 l-68 5 0 -157 0 -156 140 0 140 0 -43
-69 c-35 -58 -45 -67 -60 -59 -14 7 -154 38 -173 38 -2 0 -4 -75 -4 -167 l0
-166 99 6 c62 5 126 16 175 32 42 14 78 25 80 25 3 0 -10 -34 -27 -75 l-32
-75 -239 0 c-203 0 -237 2 -233 14 29 76 32 113 31 451 0 305 -2 356 -17 394
-9 24 -17 47 -17 52 0 5 110 9 245 9 135 0 245 -2 245 -5z m343 -37 c-15 -37
-18 -99 -21 -416 l-4 -373 54 6 c76 9 186 35 237 57 24 10 45 17 47 15 2 -2
-11 -40 -29 -85 l-32 -81 -229 -1 c-194 0 -227 2 -223 14 29 76 32 113 31 451
0 305 -2 356 -17 394 -9 24 -17 47 -17 52 0 5 49 9 110 9 l109 0 -16 -42z
m-2491 -1202 c18 -37 19 -47 8 -61 -10 -12 -16 -13 -26 -4 -22 18 -17 5 21
-51 40 -59 42 -71 17 -93 -13 -12 -21 -14 -29 -6 -6 6 -16 8 -21 5 -7 -4 -1
-17 14 -31 14 -14 32 -42 40 -62 15 -34 14 -38 -6 -65 -11 -15 -17 -28 -13
-28 13 0 84 49 122 84 l33 31 -7 -40 c-10 -57 -44 -115 -84 -142 -45 -31 -60
-29 -68 7 -3 17 -10 33 -14 36 -5 3 -7 10 -4 15 4 5 -1 9 -10 9 -13 0 -15 -5
-10 -17 16 -37 17 -70 3 -75 -21 -8 -86 17 -115 44 -31 29 -59 83 -68 131 -7
38 1 47 24 25 10 -11 11 -10 6 3 -4 9 -2 49 4 89 7 52 15 76 29 86 11 7 29 36
41 64 23 54 45 68 36 23 -4 -17 3 -9 16 20 12 26 26 47 30 47 5 0 19 -20 31
-44z m77 -65 c26 -61 26 -55 -2 -83 l-24 -24 -21 39 c-19 35 -20 41 -7 60 8
12 15 29 15 39 0 33 17 19 39 -31z m45 -108 c3 -21 6 -57 6 -80 0 -36 -5 -46
-33 -67 -38 -29 -47 -32 -47 -13 0 7 -9 30 -20 51 l-19 39 24 19 c13 10 33 34
45 53 12 19 25 35 30 35 4 0 10 -17 14 -37z m-2505 -17 c25 -22 27 -61 6 -74
-14 -7 -13 -11 5 -27 28 -25 26 -61 -6 -81 -31 -21 -215 -27 -221 -8 -2 6 5
14 17 17 18 5 20 13 20 82 0 68 -2 77 -20 82 -11 3 -20 12 -20 20 0 24 191 14
219 -11z m350 0 c42 -38 12 -95 -49 -96 l-25 -1 23 -12 c12 -7 29 -23 38 -36
9 -12 28 -27 42 -32 35 -14 14 -26 -36 -21 -32 3 -43 10 -68 48 -33 50 -74 62
-74 22 0 -29 10 -42 34 -51 32 -12 10 -19 -59 -19 -69 0 -91 7 -59 19 29 10
34 23 34 85 0 65 -7 88 -26 88 -8 0 -14 7 -14 16 0 14 14 16 109 12 90 -3 113
-7 130 -22z m339 -14 c2 -19 0 -41 -3 -50 -5 -14 -10 -11 -22 13 -20 38 -30
45 -70 45 -32 0 -33 -2 -33 -40 0 -47 22 -46 39 2 17 47 31 23 31 -53 0 -55
-3 -69 -15 -69 -8 0 -15 8 -15 18 0 19 -18 42 -32 42 -4 0 -8 -16 -8 -36 0
-35 1 -35 37 -32 30 2 42 10 58 35 27 44 35 41 35 -11 l0 -43 -67 -5 c-98 -7
-156 -4 -160 8 -2 7 5 14 17 17 18 5 20 13 20 82 0 68 -2 77 -20 82 -11 3 -20
12 -20 19 0 12 21 14 113 12 l112 -3 3 -33z m317 28 c3 -5 -2 -13 -11 -18 -15
-9 -15 -13 1 -62 l17 -52 19 42 c23 51 24 70 4 70 -8 0 -15 7 -15 15 0 11 12
15 45 15 48 0 58 -13 28 -36 -10 -7 -34 -51 -53 -99 -19 -48 -39 -88 -45 -89
-5 0 -19 25 -30 56 -11 31 -23 59 -26 62 -3 4 -17 -22 -30 -56 -13 -34 -29
-63 -34 -65 -6 -2 -26 40 -44 93 -24 67 -40 98 -53 102 -10 2 -18 10 -18 18 0
10 27 13 120 13 66 0 122 -4 125 -9z m315 -4 c0 -7 -9 -16 -20 -19 -18 -5 -20
-14 -20 -82 0 -69 2 -77 20 -82 12 -3 19 -10 17 -16 -5 -15 -130 -14 -135 1
-2 7 6 12 17 12 20 0 21 6 21 85 0 78 -2 85 -20 85 -20 0 -26 11 -13 23 3 4
35 7 70 7 47 0 63 -4 63 -14z m232 -58 l68 -73 -2 50 c-3 41 -7 52 -26 60 -34
15 -20 30 33 33 57 4 81 -12 42 -27 -26 -10 -27 -12 -27 -100 0 -49 -4 -92 -9
-95 -5 -4 -46 33 -91 81 l-81 88 3 -70 c3 -64 5 -70 26 -73 13 -2 21 -9 19
-15 -5 -15 -109 -15 -115 1 -2 7 5 12 16 12 26 0 32 18 32 97 0 56 -3 66 -20
70 -38 10 -23 33 22 33 38 0 46 -5 110 -72z m416 61 c32 0 32 -1 32 -50 0 -49
-13 -66 -24 -31 -16 48 -87 83 -119 60 -21 -16 -32 -74 -23 -123 8 -40 40 -59
82 -49 18 5 24 13 24 35 0 24 -4 29 -25 29 -14 0 -25 5 -25 10 0 6 32 10 75
10 71 0 99 -11 55 -23 -15 -4 -20 -14 -20 -42 0 -30 -3 -36 -16 -31 -9 3 -34
1 -55 -5 -52 -16 -109 1 -143 42 -43 51 -30 114 34 157 28 19 43 22 75 17 22
-3 55 -6 73 -6z m850 -11 c10 -10 17 -10 32 0 19 12 20 9 20 -40 l-1 -53 -20
37 c-21 41 -45 58 -82 58 -31 0 -43 -15 -52 -62 -8 -44 1 -93 22 -113 26 -26
78 -19 107 16 14 17 26 25 26 19 0 -6 -11 -22 -25 -35 -43 -44 -145 -28 -172
27 -25 49 -19 93 16 129 24 23 38 29 73 29 24 0 50 -6 56 -12z m368 -22 c26
-26 34 -42 34 -71 0 -29 -8 -45 -34 -71 -29 -29 -41 -34 -80 -34 -121 0 -178
100 -102 176 31 31 40 34 91 34 51 0 60 -3 91 -34z m242 -42 l38 -76 38 76 37
76 42 0 c40 0 41 0 19 -16 -19 -13 -22 -24 -22 -89 0 -65 3 -76 22 -89 21 -15
19 -16 -47 -15 -52 0 -64 3 -47 9 20 9 22 16 22 82 l-1 73 -39 -82 c-21 -46
-41 -83 -44 -83 -4 0 -24 37 -46 83 l-39 82 0 -67 c-1 -58 2 -69 21 -82 21
-15 20 -16 -32 -15 -46 0 -51 2 -33 11 25 12 33 35 33 106 0 39 -5 57 -20 72
l-20 20 40 0 c40 0 40 0 78 -76z m487 51 c30 -29 31 -36 7 -65 -14 -18 -32
-24 -75 -28 -57 -4 -57 -5 -57 -37 0 -23 6 -35 23 -43 18 -9 10 -11 -48 -11
-66 -1 -68 0 -47 15 19 13 22 24 22 89 0 65 -3 76 -22 89 -21 15 -16 16 75 16
91 0 100 -2 122 -25z m229 -69 c24 -51 52 -99 62 -105 15 -8 5 -10 -46 -10
-36 1 -57 3 -47 6 12 3 17 12 15 26 -3 19 -11 22 -50 25 -41 3 -48 0 -48 -15
0 -11 5 -24 12 -31 9 -9 2 -12 -31 -12 l-44 0 24 23 c13 12 40 59 59 104 19
46 38 83 42 83 5 0 28 -42 52 -94z m303 22 l73 -72 0 47 c0 38 -5 53 -25 72
l-24 25 52 0 c49 0 51 -1 29 -16 -20 -14 -22 -23 -22 -105 0 -49 -3 -89 -7
-89 -5 0 -45 39 -90 87 l-82 88 -1 -72 c0 -69 1 -73 28 -87 26 -15 26 -15 -33
-15 -50 0 -57 2 -40 11 31 18 35 28 35 100 0 58 -3 69 -22 82 -22 16 -22 16
17 16 36 0 47 -7 112 -72z m321 61 c-16 -9 -16 -13 8 -49 15 -22 29 -40 33
-40 7 0 51 63 51 73 0 4 -10 12 -22 17 -18 7 -11 9 31 9 l55 1 -40 -34 c-75
-64 -95 -144 -41 -166 16 -6 1 -9 -53 -9 -55 0 -69 3 -52 9 37 15 30 76 -14
134 -20 26 -46 51 -57 56 -16 6 -2 9 48 9 52 0 66 -2 53 -10z"/>
<path d="M3716 4877 c-16 -34 -43 -97 -62 -139 l-33 -78 119 0 c66 0 120 4
120 8 0 11 -101 255 -109 264 -4 5 -20 -20 -35 -55z"/>
<path d="M3172 3426 c-23 -52 -45 -101 -48 -110 -5 -14 6 -16 91 -16 74 0 96
3 92 13 -33 83 -80 194 -86 200 -4 4 -26 -35 -49 -87z"/>
<path d="M3841 2453 c-27 -47 -28 -48 -47 -32 -10 8 -5 -4 11 -29 15 -23 30
-40 33 -37 3 2 -1 12 -8 20 -11 13 -10 22 9 55 12 22 20 40 17 40 -3 0 -10 -8
-15 -17z"/>
<path d="M3750 2266 c0 -2 8 -10 18 -17 15 -13 16 -12 3 4 -13 16 -21 21 -21
13z"/>
<path d="M1410 2344 c0 -34 1 -35 31 -32 63 6 67 68 4 68 -33 0 -35 -2 -35
-36z"/>
<path d="M1410 2250 c0 -39 1 -40 35 -40 30 0 55 19 55 44 0 15 -35 36 -61 36
-27 0 -29 -2 -29 -40z"/>
<path d="M1730 2345 c0 -35 0 -35 45 -35 49 0 71 21 54 52 -7 13 -22 18 -54
18 -45 0 -45 0 -45 -35z"/>
<path d="M2403 2383 c-17 -6 -16 -19 4 -71 l16 -43 17 38 c22 50 3 90 -37 76z"/>
<path d="M4594 2382 c-49 -32 -43 -162 8 -178 51 -16 88 23 88 92 0 57 -25 94
-65 94 -11 0 -25 -4 -31 -8z"/>
<path d="M5320 2339 l0 -52 37 6 c40 7 53 20 53 54 0 25 -27 43 -64 43 -25 0
-26 -3 -26 -51z"/>
<path d="M5587 2305 c-9 -20 -17 -38 -17 -40 0 -3 16 -5 35 -5 40 0 41 3 17
48 l-18 33 -17 -36z"/>
<path d="M2844 446 c11 -9 24 -16 30 -16 12 0 7 5 -24 19 -24 11 -24 11 -6 -3z"/>
<path d="M2960 390 c19 -11 40 -19 45 -19 6 0 -6 8 -25 19 -19 11 -39 19 -45
19 -5 0 6 -8 25 -19z"/>
</g>
</svg>
